<?xml version="1.0" standalone="no"?>
<!DOCTYPE svg PUBLIC "-//W3C//DTD SVG 20010904//EN"
 "http://www.w3.org/TR/2001/REC-SVG-20010904/DTD/svg10.dtd">
<svg version="1.0" xmlns="http://www.w3.org/2000/svg"
 width="512.000000pt" height="512.000000pt" viewBox="0 0 512.000000 512.000000"
 preserveAspectRatio="xMidYMid meet">

<g transform="translate(0.000000,512.000000) scale(0.100000,-0.100000)"
fill="#000000" stroke="none">
<path d="M2465 5100 c-359 -74 -638 -232 -862 -490 -235 -267 -394 -634 -468
-1073 -28 -170 -49 -451 -35 -477 5 -9 87 -90 183 -180 l175 -163 -103 -42
c-258 -106 -482 -270 -609 -448 -82 -115 -282 -546 -356 -766 -62 -186 -75
-264 -75 -446 0 -181 15 -249 82 -378 73 -138 262 -320 423 -406 71 -38 76
-43 88 -85 15 -57 73 -117 128 -134 32 -9 405 -12 1631 -12 l1589 0 50 25 c82
41 114 101 114 214 l0 67 72 59 c145 121 240 258 290 415 20 66 23 95 23 235
0 178 -13 256 -71 433 -72 221 -287 683 -367 787 -138 182 -378 354 -635 453
l-72 28 165 155 c98 92 171 153 180 151 9 -2 28 4 42 14 l26 16 -6 157 c-15
371 -104 729 -259 1036 -234 464 -607 754 -1102 855 -116 24 -125 24 -241 0z
m282 -1626 c14 -4 23 -16 27 -38 4 -18 19 -53 35 -78 54 -85 137 -128 245
-128 73 0 126 22 185 75 l42 38 -6 -44 c-4 -24 -13 -80 -22 -124 -51 -267
-214 -566 -384 -704 l-64 -51 -214 0 -213 0 -48 35 c-189 139 -362 458 -414
764 -22 130 -22 131 22 89 53 -52 114 -78 188 -78 34 0 76 5 95 12 84 28 151
97 179 183 7 22 15 43 17 48 5 8 298 10 330 1z m1104 -1199 c63 -22 113 -66
143 -127 l26 -52 0 -778 0 -778 -59 0 -58 0 -6 42 c-3 23 -14 48 -23 55 -14
10 -84 13 -288 13 -305 0 -306 0 -306 -72 l0 -38 -620 0 -620 0 0 33 c0 18 -7
43 -16 55 -15 22 -17 22 -285 22 -162 0 -278 -4 -289 -10 -12 -6 -21 -26 -26
-55 l-6 -45 -59 0 -59 0 0 778 c0 730 2 779 19 817 27 60 66 101 123 129 l52
26 1156 0 c1011 0 1162 -2 1201 -15z m-1934 -1800 l0 -55 -183 0 -184 0 0 55
0 55 184 0 183 0 0 -55z m1853 0 l0 -55 -185 0 -185 0 0 55 0 55 185 0 185 0
0 -55z"/>
<path d="M2377 2812 c-21 -23 -22 -56 -1 -76 14 -14 44 -16 217 -14 l201 3 15
26 c13 24 13 29 -2 53 l-17 26 -199 0 c-179 0 -199 -2 -214 -18z"/>
<path d="M2505 2156 c-242 -56 -422 -200 -502 -402 -24 -62 -27 -82 -27 -189
0 -102 3 -129 23 -180 30 -77 97 -179 150 -230 l41 -39 0 -153 c0 -166 9 -201
62 -249 58 -54 65 -54 402 -55 338 0 360 3 414 54 53 49 62 84 62 248 l0 151
58 62 c312 334 151 828 -317 968 -87 26 -282 33 -366 14z m305 -122 c208 -49
372 -202 411 -385 30 -140 -22 -294 -135 -404 l-64 -62 -4 -175 c-3 -171 -4
-177 -27 -202 -19 -20 -34 -26 -68 -26 l-43 0 0 135 c0 122 -2 137 -20 155
-27 27 -65 26 -84 -2 -13 -18 -16 -51 -16 -155 l0 -133 -100 0 -100 0 0 135
c0 122 -2 137 -20 155 -24 24 -57 26 -82 3 -16 -14 -18 -33 -18 -155 l0 -138
-42 0 c-29 0 -49 7 -65 22 -22 21 -23 27 -23 185 0 91 -4 172 -10 182 -5 10
-38 47 -73 82 -41 42 -76 89 -98 134 -32 66 -34 75 -34 180 0 105 2 114 34
180 67 136 215 250 377 289 79 19 224 19 304 0z"/>
<path d="M2361 1760 c-49 -12 -83 -40 -108 -90 -28 -53 -29 -101 -4 -156 26
-58 72 -87 142 -92 108 -8 184 61 184 168 0 114 -103 196 -214 170z m79 -130
c24 -24 26 -53 4 -74 -18 -19 -65 -21 -82 -4 -20 20 -14 65 10 82 30 21 44 20
68 -4z"/>
<path d="M2867 1758 c-80 -21 -136 -114 -122 -200 8 -47 60 -109 105 -128 44
-18 130 -8 169 19 90 65 93 216 4 279 -24 17 -98 44 -113 41 -3 -1 -22 -6 -43
-11z m81 -124 c24 -17 30 -62 10 -82 -20 -20 -76 -15 -88 7 -15 29 -12 49 10
71 24 24 38 25 68 4z"/>
</g>
</svg>
